<?xml version="1.0" encoding="utf-8"?>
<!-- Generator: Adobe Illustrator 22.1.0, SVG Export Plug-In . SVG Version: 6.00 Build 0)  -->
<svg version="1.1" id="Camada_1" xmlns="http://www.w3.org/2000/svg" xmlns:xlink="http://www.w3.org/1999/xlink" x="0px" y="0px"
	 viewBox="0 0 841.9 595.3" style="enable-background:new 0 0 841.9 595.3;" xml:space="preserve">
<style type="text/css">
	.st0{fill:none;stroke:url(#SVGID_1_);stroke-width:40;stroke-miterlimit:10;}
	.st1{fill:none;stroke:url(#SVGID_2_);stroke-width:25;stroke-miterlimit:10;}
	.st2{fill:url(#SVGID_3_);}
	.st3{fill:url(#SVGID_4_);}
	.st4{fill:url(#SVGID_5_);}
	.st5{fill:url(#SVGID_6_);}
	.st6{fill:url(#SVGID_7_);}
	.st7{fill:url(#SVGID_8_);}
</style>
<linearGradient id="SVGID_1_" gradientUnits="userSpaceOnUse" x1="170.6622" y1="157.172" x2="301.8911" y2="157.172">
	<stop  offset="0" style="stop-color:#56CD59"/>
	<stop  offset="0.1739" style="stop-color:#57CC5F"/>
	<stop  offset="0.4077" style="stop-color:#58C870"/>
	<stop  offset="0.6755" style="stop-color:#5BC28C"/>
	<stop  offset="0.9667" style="stop-color:#5FBAB3"/>
	<stop  offset="1" style="stop-color:#5FB9B8"/>
</linearGradient>
<ellipse transform="matrix(0.8329 -0.5534 0.5534 0.8329 -47.5009 157.0311)" class="st0" cx="236.3" cy="157.2" rx="47.3" ry="41.4"/>
<g>
	<image style="overflow:visible;" width="404" height="623" xlink:href="2EDB0255.png"  transform="matrix(1 0 0 1 -11 1.3)">
	</image>
</g>
<linearGradient id="SVGID_2_" gradientUnits="userSpaceOnUse" x1="38.9028" y1="293.9161" x2="354.3791" y2="293.9161">
	<stop  offset="0" style="stop-color:#56CD59"/>
	<stop  offset="0.1739" style="stop-color:#57CC5F"/>
	<stop  offset="0.4077" style="stop-color:#58C870"/>
	<stop  offset="0.6755" style="stop-color:#5BC28C"/>
	<stop  offset="0.9667" style="stop-color:#5FBAB3"/>
	<stop  offset="1" style="stop-color:#5FB9B8"/>
</linearGradient>
<path class="st1" d="M52,476.7c0-3.9-1.3-96.1,0-135.6s10.8-114.5,28.3-155.3s39.3-79.8,72.7-104c27.4-19.8,57.5-27.9,90.2-26.3
	c24.1,1.2,52.9,9.6,74.1,32.9c18.2,20.1,24.6,42.6,24.6,63.2c0,29.9-6,48.4-15.6,63.6c-13.6,21.5-40.4,42.3-61.1,53.5
	c-20.3,11-59.7,23.3-92,32.9c-25.9,7.7-47.1,21.1-63.3,43.4c-16.2,22.4-31,54-37.7,75C65.5,441.2,52,476.7,52,476.7z"/>
<g>
	
		<image style="overflow:visible;" width="204" height="199" xlink:href="2EDB0256.png"  transform="matrix(1 0 0 1 134.2552 57.7117)">
	</image>
</g>
<linearGradient id="SVGID_3_" gradientUnits="userSpaceOnUse" x1="404.8936" y1="330.7002" x2="520.4424" y2="330.7002">
	<stop  offset="0" style="stop-color:#56CD59"/>
	<stop  offset="0.1739" style="stop-color:#57CC5F"/>
	<stop  offset="0.4077" style="stop-color:#58C870"/>
	<stop  offset="0.6755" style="stop-color:#5BC28C"/>
	<stop  offset="0.9667" style="stop-color:#5FBAB3"/>
	<stop  offset="1" style="stop-color:#5FB9B8"/>
</linearGradient>
<path class="st2" d="M404.9,393.3V268.1h76c25.9,0,37.1,17.3,37.1,31.9c0,15.6-9.2,26.1-21.4,28.7c13.5,2.1,23.8,14.4,23.8,30.6
	c0,17.4-11.8,34-37,34H404.9z M479.6,306.8c0-4.3-3.6-7.1-7.5-7.1h-29.3v14.6H472C476,314.3,479.6,311.3,479.6,306.8z M482,353.9
	c0-4.5-3.4-8.1-8.8-8.1h-30.4v15.9h30.4C478.6,361.7,482,358.6,482,353.9z"/>
<linearGradient id="SVGID_4_" gradientUnits="userSpaceOnUse" x1="528.8793" y1="330.794" x2="665.8132" y2="330.794">
	<stop  offset="0" style="stop-color:#56CD59"/>
	<stop  offset="0.1739" style="stop-color:#57CC5F"/>
	<stop  offset="0.4077" style="stop-color:#58C870"/>
	<stop  offset="0.6755" style="stop-color:#5BC28C"/>
	<stop  offset="0.9667" style="stop-color:#5FBAB3"/>
	<stop  offset="1" style="stop-color:#5FB9B8"/>
</linearGradient>
<path class="st3" d="M528.9,330.8c0-38.5,29.8-64.7,68.5-64.7s68.5,26.3,68.5,64.7s-29.8,64.7-68.5,64.7S528.9,369.2,528.9,330.8z
	 M627.4,330.8c0-17.4-11.8-31.3-30-31.3s-30,13.9-30,31.3c0,17.4,11.8,31.3,30,31.3S627.4,348.2,627.4,330.8z"/>
<linearGradient id="SVGID_5_" gradientUnits="userSpaceOnUse" x1="479.7363" y1="472.5217" x2="591.7214" y2="472.5217">
	<stop  offset="0" style="stop-color:#56CD59"/>
	<stop  offset="0.1739" style="stop-color:#57CC5F"/>
	<stop  offset="0.4077" style="stop-color:#58C870"/>
	<stop  offset="0.6755" style="stop-color:#5BC28C"/>
	<stop  offset="0.9667" style="stop-color:#5FBAB3"/>
	<stop  offset="1" style="stop-color:#5FB9B8"/>
</linearGradient>
<path class="st4" d="M548.6,535.1l-17.3-39.4h-13.7v39.4h-37.9V410h66.8c29.3,0,45,19.5,45,43c0,21.6-12.6,33-22.5,37.9l22.7,44.3
	H548.6z M553.1,452.7c0-6.8-6-9.8-12.4-9.8h-23.1v19.7h23.1C547.1,462.7,553.1,459.7,553.1,452.7z"/>
<linearGradient id="SVGID_6_" gradientUnits="userSpaceOnUse" x1="593.4064" y1="472.5217" x2="733.3409" y2="472.5217">
	<stop  offset="0" style="stop-color:#56CD59"/>
	<stop  offset="0.1739" style="stop-color:#57CC5F"/>
	<stop  offset="0.4077" style="stop-color:#58C870"/>
	<stop  offset="0.6755" style="stop-color:#5BC28C"/>
	<stop  offset="0.9667" style="stop-color:#5FBAB3"/>
	<stop  offset="1" style="stop-color:#5FB9B8"/>
</linearGradient>
<path class="st5" d="M690.4,535.1l-4.5-14.6h-45l-4.5,14.6h-43L639.6,410h47.6l46.1,125.1H690.4z M663.4,447.1L651,487.4h24.8
	L663.4,447.1z"/>
<linearGradient id="SVGID_7_" gradientUnits="userSpaceOnUse" x1="735.0258" y1="469.542" x2="811.4653" y2="469.542">
	<stop  offset="0" style="stop-color:#56CD59"/>
	<stop  offset="0.1739" style="stop-color:#57CC5F"/>
	<stop  offset="0.4077" style="stop-color:#58C870"/>
	<stop  offset="0.6755" style="stop-color:#5BC28C"/>
	<stop  offset="0.9667" style="stop-color:#5FBAB3"/>
	<stop  offset="1" style="stop-color:#5FB9B8"/>
</linearGradient>
<path class="st6" d="M756.8,471.9c0-18.9,19.4-22.1,19.4-27.5c0-2.1-1.4-3.6-6.7-3.6c-4.5,0-10.7,2.8-15,7.3L735,425.7
	c10-10.7,24.9-15.7,38.4-15.7c23.3,0,38,10.7,38,27.8c0,24.4-24.6,26.1-24.6,37.9c0,2.9,1,5.4,1.9,6.4l-27.3,6.2
	C758.7,484.5,756.8,478.8,756.8,471.9z M756,510.6c0-10,8.5-18.5,18.5-18.5c10,0,18.5,8.5,18.5,18.5c0,10-8.5,18.5-18.5,18.5
	C764.4,529.1,756,520.6,756,510.6z"/>
<g>
	<image style="overflow:visible;" width="332" height="387" xlink:href="2EDB0254.png"  transform="matrix(1 0 0 1 69 204.3)">
	</image>
</g>
<linearGradient id="SVGID_8_" gradientUnits="userSpaceOnUse" x1="157.0311" y1="282.0166" x2="340.8481" y2="465.8336">
	<stop  offset="0" style="stop-color:#9641C3"/>
	<stop  offset="1" style="stop-color:#FF0086"/>
</linearGradient>
<path class="st7" d="M259.4,531.6c0,0,20.7-6.4,37.8-22.5c17.1-16.1,30.1-28.8,41.7-59.8c11.7-31,18.7-73.4,12.5-106.8
	c-6.8-36.5-24.1-56.4-49.1-72c-28.4-17.6-62.4-17.7-87.7-12.9c-27.5,5.2-51.3,17.1-66.7,33.7c-12.9,13.8-30.9,44.3-28.8,79.9
	c2.1,35.1,17.8,59.5,46.8,75.3c28.1,15.3,46.4,16.9,74.6,16c29.6-1,48.5-11,48.5-11s6.3,4.2,3.3,20.4
	C289.3,487.9,275.9,514.6,259.4,531.6z"/>
</svg>
